<?xml version="1.0" encoding="UTF-8"?>
<svg version="1.1" xmlns="http://www.w3.org/2000/svg" width="512" height="512">
<path d="M0 0 C3.40960645 0.01386118 6.81645308 -0.02035598 10.22583008 -0.05834961 C37.49466567 -0.15411946 64.31451151 6.46599933 88.29907227 19.58666992 C90.03492315 20.53507147 91.78733074 21.45297795 93.5402832 22.36938477 C136.97434041 45.89198618 168.33998247 86.62786626 182.64599609 133.54248047 C185.63653881 143.77496578 187.70111453 154.01582573 189.1105957 164.57641602 C189.24208008 165.52000977 189.37356445 166.46360352 189.5090332 167.43579102 C196.78396239 230.74733688 165.36131665 295.05055688 133.76293945 347.80541992 C132.26578536 350.3161615 130.79265109 352.83882078 129.3293457 355.36938477 C116.23766086 377.84234016 101.42106932 399.55916867 86.1105957 420.57641602 C85.57063965 421.31923828 85.03068359 422.06206055 84.47436523 422.82739258 C76.18716188 434.20509535 67.72575657 445.44524925 59.1105957 456.57641602 C58.64588867 457.17760254 58.18118164 457.77878906 57.70239258 458.39819336 C46.27650167 473.14910073 34.3436075 487.48964289 22.1105957 501.57641602 C21.31266602 502.49938477 20.51473633 503.42235352 19.69262695 504.37329102 C18.98493164 505.18282227 18.27723633 505.99235352 17.5480957 506.82641602 C16.94868164 507.51219727 16.34926758 508.19797852 15.73168945 508.90454102 C11.99967152 512.75346554 8.58340479 513.10496624 3.4855957 513.20141602 C-1.89809326 513.22847577 -5.6041115 512.93167033 -9.8269043 509.26391602 C-11.23353311 507.74847252 -12.58719472 506.18247449 -13.8894043 504.57641602 C-14.58807617 503.7552832 -15.28674805 502.93415039 -16.0065918 502.08813477 C-17.50918862 500.28341438 -18.98873715 498.45932241 -20.44799805 496.61938477 C-23.14198808 493.26159559 -25.94255401 490.01393397 -28.7644043 486.76391602 C-33.72085755 481.02441062 -38.44889698 475.13857692 -43.1003418 469.15063477 C-45.52532889 466.03020894 -47.99240893 462.94570554 -50.47119141 459.86791992 C-59.53923888 448.60638335 -68.07875124 436.99504213 -76.5144043 425.25610352 C-78.66304682 422.26845552 -80.82830754 419.29456787 -83.0144043 416.33422852 C-135.68947249 344.75334096 -195.09419544 250.34486601 -181.8659668 157.58422852 C-178.27368716 134.47612744 -170.60539043 113.32945575 -159.1862793 92.91625977 C-158.02849092 90.82735844 -156.93943615 88.72105655 -155.8894043 86.57641602 C-155.2294043 86.57641602 -154.5694043 86.57641602 -153.8894043 86.57641602 C-153.8894043 85.58641602 -153.8894043 84.59641602 -153.8894043 83.57641602 C-153.2294043 83.57641602 -152.5694043 83.57641602 -151.8894043 83.57641602 C-151.8894043 82.58641602 -151.8894043 81.59641602 -151.8894043 80.57641602 C-151.2294043 80.57641602 -150.5694043 80.57641602 -149.8894043 80.57641602 C-149.8894043 79.58641602 -149.8894043 78.59641602 -149.8894043 77.57641602 C-149.2294043 77.57641602 -148.5694043 77.57641602 -147.8894043 77.57641602 C-147.3944043 75.59641602 -147.3944043 75.59641602 -146.8894043 73.57641602 C-146.2294043 73.57641602 -145.5694043 73.57641602 -144.8894043 73.57641602 C-144.2294043 71.92641602 -143.5694043 70.27641602 -142.8894043 68.57641602 C-142.2294043 68.57641602 -141.5694043 68.57641602 -140.8894043 68.57641602 C-140.6419043 67.79266602 -140.3944043 67.00891602 -140.1394043 66.20141602 C-138.68015926 63.13700145 -137.83925473 62.95915841 -134.8894043 61.57641602 C-134.60323242 60.98602539 -134.31706055 60.39563477 -134.0222168 59.78735352 C-130.44011445 52.7960779 -122.15840174 46.25185536 -115.8894043 41.57641602 C-115.2294043 41.57641602 -114.5694043 41.57641602 -113.8894043 41.57641602 C-113.8894043 40.91641602 -113.8894043 40.25641602 -113.8894043 39.57641602 C-112.2394043 38.91641602 -110.5894043 38.25641602 -108.8894043 37.57641602 C-108.8894043 36.91641602 -108.8894043 36.25641602 -108.8894043 35.57641602 C-104.50478891 32.57641602 -104.50478891 32.57641602 -101.8894043 32.57641602 C-101.8894043 31.91641602 -101.8894043 31.25641602 -101.8894043 30.57641602 C-100.8994043 30.57641602 -99.9094043 30.57641602 -98.8894043 30.57641602 C-98.8894043 29.91641602 -98.8894043 29.25641602 -98.8894043 28.57641602 C-67.83672386 10.63486732 -36.09392111 -0.20386214 0 0 Z " fill="#F748C7" transform="translate(252.889404296875,-0.576416015625)"/>
<path d="M0 0 C3.40960645 0.01386118 6.81645308 -0.02035598 10.22583008 -0.05834961 C37.49466567 -0.15411946 64.31451151 6.46599933 88.29907227 19.58666992 C90.03492315 20.53507147 91.78733074 21.45297795 93.5402832 22.36938477 C136.97434041 45.89198618 168.33998247 86.62786626 182.64599609 133.54248047 C185.63653881 143.77496578 187.70111453 154.01582573 189.1105957 164.57641602 C189.24208008 165.52000977 189.37356445 166.46360352 189.5090332 167.43579102 C196.78396239 230.74733688 165.36131665 295.05055688 133.76293945 347.80541992 C132.26578536 350.3161615 130.79265109 352.83882078 129.3293457 355.36938477 C116.23766086 377.84234016 101.42106932 399.55916867 86.1105957 420.57641602 C85.57063965 421.31923828 85.03068359 422.06206055 84.47436523 422.82739258 C76.18716188 434.20509535 67.72575657 445.44524925 59.1105957 456.57641602 C58.64588867 457.17760254 58.18118164 457.77878906 57.70239258 458.39819336 C46.27650167 473.14910073 34.3436075 487.48964289 22.1105957 501.57641602 C21.31266602 502.49938477 20.51473633 503.42235352 19.69262695 504.37329102 C18.98493164 505.18282227 18.27723633 505.99235352 17.5480957 506.82641602 C16.94868164 507.51219727 16.34926758 508.19797852 15.73168945 508.90454102 C11.99967152 512.75346554 8.58340479 513.10496624 3.4855957 513.20141602 C-1.89809326 513.22847577 -5.6041115 512.93167033 -9.8269043 509.26391602 C-11.23353311 507.74847252 -12.58719472 506.18247449 -13.8894043 504.57641602 C-14.58807617 503.7552832 -15.28674805 502.93415039 -16.0065918 502.08813477 C-17.50918862 500.28341438 -18.98873715 498.45932241 -20.44799805 496.61938477 C-23.14198808 493.26159559 -25.94255401 490.01393397 -28.7644043 486.76391602 C-33.72085755 481.02441062 -38.44889698 475.13857692 -43.1003418 469.15063477 C-45.52532889 466.03020894 -47.99240893 462.94570554 -50.47119141 459.86791992 C-59.53923888 448.60638335 -68.07875124 436.99504213 -76.5144043 425.25610352 C-78.66304682 422.26845552 -80.82830754 419.29456787 -83.0144043 416.33422852 C-135.68947249 344.75334096 -195.09419544 250.34486601 -181.8659668 157.58422852 C-178.27368716 134.47612744 -170.60539043 113.32945575 -159.1862793 92.91625977 C-158.02849092 90.82735844 -156.93943615 88.72105655 -155.8894043 86.57641602 C-155.2294043 86.57641602 -154.5694043 86.57641602 -153.8894043 86.57641602 C-153.8894043 85.58641602 -153.8894043 84.59641602 -153.8894043 83.57641602 C-153.2294043 83.57641602 -152.5694043 83.57641602 -151.8894043 83.57641602 C-151.8894043 82.58641602 -151.8894043 81.59641602 -151.8894043 80.57641602 C-151.2294043 80.57641602 -150.5694043 80.57641602 -149.8894043 80.57641602 C-149.8894043 79.58641602 -149.8894043 78.59641602 -149.8894043 77.57641602 C-149.2294043 77.57641602 -148.5694043 77.57641602 -147.8894043 77.57641602 C-147.3944043 75.59641602 -147.3944043 75.59641602 -146.8894043 73.57641602 C-146.2294043 73.57641602 -145.5694043 73.57641602 -144.8894043 73.57641602 C-144.2294043 71.92641602 -143.5694043 70.27641602 -142.8894043 68.57641602 C-142.2294043 68.57641602 -141.5694043 68.57641602 -140.8894043 68.57641602 C-140.6419043 67.79266602 -140.3944043 67.00891602 -140.1394043 66.20141602 C-138.68015926 63.13700145 -137.83925473 62.95915841 -134.8894043 61.57641602 C-134.60323242 60.98602539 -134.31706055 60.39563477 -134.0222168 59.78735352 C-130.44011445 52.7960779 -122.15840174 46.25185536 -115.8894043 41.57641602 C-115.2294043 41.57641602 -114.5694043 41.57641602 -113.8894043 41.57641602 C-113.8894043 40.91641602 -113.8894043 40.25641602 -113.8894043 39.57641602 C-112.2394043 38.91641602 -110.5894043 38.25641602 -108.8894043 37.57641602 C-108.8894043 36.91641602 -108.8894043 36.25641602 -108.8894043 35.57641602 C-104.50478891 32.57641602 -104.50478891 32.57641602 -101.8894043 32.57641602 C-101.8894043 31.91641602 -101.8894043 31.25641602 -101.8894043 30.57641602 C-100.8994043 30.57641602 -99.9094043 30.57641602 -98.8894043 30.57641602 C-98.8894043 29.91641602 -98.8894043 29.25641602 -98.8894043 28.57641602 C-67.83672386 10.63486732 -36.09392111 -0.20386214 0 0 Z M-102.8894043 77.57641602 C-103.67959961 78.31504883 -104.46979492 79.05368164 -105.28393555 79.81469727 C-132.48128849 105.86890403 -147.44985679 144.10107007 -148.36230469 181.3605957 C-148.67295694 223.95633681 -132.97612519 262.31853216 -103.1394043 292.63891602 C-75.79926657 319.79911193 -38.20225756 335.89599944 0.4230957 335.95141602 C41.52337623 335.42982209 78.50976693 321.163807 108.1105957 292.57641602 C108.90079102 291.8377832 109.69098633 291.09915039 110.50512695 290.33813477 C137.73050375 264.25708204 152.7053037 225.76400599 153.58349609 188.45629883 C153.87455564 146.78496202 139.02431184 109.51513834 110.1105957 79.57641602 C109.37196289 78.7862207 108.63333008 77.99602539 107.87231445 77.18188477 C81.68063188 49.84102416 43.34877081 34.9841 5.91796875 34.10351562 C-35.72106686 33.81192942 -72.97787298 48.68895995 -102.8894043 77.57641602 Z " fill="#FBFBFB" transform="translate(252.889404296875,-0.576416015625)"/>
<path d="M0 0 C4.62 0 9.24 0 14 0 C14 27.72 14 55.44 14 84 C64.49 84 114.98 84 167 84 C167 102.15 167 120.3 167 139 C162.38 139 157.76 139 153 139 C153 132.07 153 125.14 153 118 C107.13 118 61.26 118 14 118 C14 124.93 14 131.86 14 139 C9.38 139 4.76 139 0 139 C0 93.13 0 47.26 0 0 Z " fill="#FEFEFE" transform="translate(172,115)"/>
<path d="M0 0 C0.69959839 -0.0065712 1.39919678 -0.0131424 2.11999512 -0.01991272 C4.43522251 -0.03962096 6.75038501 -0.05130455 9.06567383 -0.0612793 C9.85831446 -0.06535482 10.65095509 -0.06943035 11.46761513 -0.07362938 C15.66541914 -0.0944825 19.86319057 -0.10878583 24.06103516 -0.11816406 C28.38410215 -0.12920936 32.70665171 -0.16358924 37.02953625 -0.20333576 C40.36427221 -0.22956171 43.69888619 -0.23786131 47.0337162 -0.24144554 C48.62643224 -0.24629839 50.21914331 -0.2578751 51.81175804 -0.27648354 C68.6007764 -0.46041071 68.6007764 -0.46041071 76.10864258 5.88793945 C76.5546582 6.43708008 77.00067383 6.9862207 77.46020508 7.55200195 C78.15243164 8.36797852 78.15243164 8.36797852 78.85864258 9.20043945 C84.95488406 19.02431903 82.08520508 29.55406959 82.08520508 41.17700195 C47.76520508 41.17700195 13.44520508 41.17700195 -21.91479492 41.17700195 C-21.91479492 11.22306721 -21.91479492 11.22306721 -15.87963867 5.1184082 C-15.21061523 4.66336914 -14.5415918 4.20833008 -13.85229492 3.73950195 C-13.18069336 3.26641602 -12.5090918 2.79333008 -11.81713867 2.3059082 C-7.88290593 -0.02878022 -4.48264171 0.03485503 0 0 Z " fill="#FEFEFE" transform="translate(256.914794921875,142.822998046875)"/>
<path d="M0 0 C3.77702297 2.63513231 6.60374735 5.7074947 8.6875 9.875 C9.1947965 15.43031248 9.45010422 20.29330236 7 25.375 C0.30768021 32.60994031 0.30768021 32.60994031 -4.66796875 33.11328125 C-11.1921256 33.28425915 -15.1004057 32.91703231 -20.3125 28.875 C-24.52038028 23.44904911 -26.15791236 18.73631767 -25.3125 11.875 C-23.67575917 6.20374515 -20.75598092 2.56953424 -15.59375 -0.28125 C-10.28184176 -2.24592839 -5.28236982 -1.79401239 0 0 Z " fill="#FEFDFE" transform="translate(218.3125,151.125)"/>
</svg>
