<?xml version="1.0" encoding="UTF-8"?>
<svg version="1.1" xmlns="http://www.w3.org/2000/svg" width="512" height="512">
<path d="M0 0 C3.40960645 0.01386118 6.81645308 -0.02035598 10.22583008 -0.05834961 C37.49466567 -0.15411946 64.31451151 6.46599933 88.29907227 19.58666992 C90.03492315 20.53507147 91.78733074 21.45297795 93.5402832 22.36938477 C136.97434041 45.89198618 168.33998247 86.62786626 182.64599609 133.54248047 C185.63653881 143.77496578 187.70111453 154.01582573 189.1105957 164.57641602 C189.24208008 165.52000977 189.37356445 166.46360352 189.5090332 167.43579102 C196.78396239 230.74733688 165.36131665 295.05055688 133.76293945 347.80541992 C132.26578536 350.3161615 130.79265109 352.83882078 129.3293457 355.36938477 C116.23766086 377.84234016 101.42106932 399.55916867 86.1105957 420.57641602 C85.57063965 421.31923828 85.03068359 422.06206055 84.47436523 422.82739258 C76.18716188 434.20509535 67.72575657 445.44524925 59.1105957 456.57641602 C58.64588867 457.17760254 58.18118164 457.77878906 57.70239258 458.39819336 C46.27650167 473.14910073 34.3436075 487.48964289 22.1105957 501.57641602 C21.31266602 502.49938477 20.51473633 503.42235352 19.69262695 504.37329102 C18.98493164 505.18282227 18.27723633 505.99235352 17.5480957 506.82641602 C16.94868164 507.51219727 16.34926758 508.19797852 15.73168945 508.90454102 C11.99967152 512.75346554 8.58340479 513.10496624 3.4855957 513.20141602 C-1.89809326 513.22847577 -5.6041115 512.93167033 -9.8269043 509.26391602 C-11.23353311 507.74847252 -12.58719472 506.18247449 -13.8894043 504.57641602 C-14.58807617 503.7552832 -15.28674805 502.93415039 -16.0065918 502.08813477 C-17.50918862 500.28341438 -18.98873715 498.45932241 -20.44799805 496.61938477 C-23.14198808 493.26159559 -25.94255401 490.01393397 -28.7644043 486.76391602 C-33.72085755 481.02441062 -38.44889698 475.13857692 -43.1003418 469.15063477 C-45.52532889 466.03020894 -47.99240893 462.94570554 -50.47119141 459.86791992 C-59.53923888 448.60638335 -68.07875124 436.99504213 -76.5144043 425.25610352 C-78.66304682 422.26845552 -80.82830754 419.29456787 -83.0144043 416.33422852 C-135.68947249 344.75334096 -195.09419544 250.34486601 -181.8659668 157.58422852 C-178.27368716 134.47612744 -170.60539043 113.32945575 -159.1862793 92.91625977 C-158.02849092 90.82735844 -156.93943615 88.72105655 -155.8894043 86.57641602 C-155.2294043 86.57641602 -154.5694043 86.57641602 -153.8894043 86.57641602 C-153.8894043 85.58641602 -153.8894043 84.59641602 -153.8894043 83.57641602 C-153.2294043 83.57641602 -152.5694043 83.57641602 -151.8894043 83.57641602 C-151.8894043 82.58641602 -151.8894043 81.59641602 -151.8894043 80.57641602 C-151.2294043 80.57641602 -150.5694043 80.57641602 -149.8894043 80.57641602 C-149.8894043 79.58641602 -149.8894043 78.59641602 -149.8894043 77.57641602 C-149.2294043 77.57641602 -148.5694043 77.57641602 -147.8894043 77.57641602 C-147.3944043 75.59641602 -147.3944043 75.59641602 -146.8894043 73.57641602 C-146.2294043 73.57641602 -145.5694043 73.57641602 -144.8894043 73.57641602 C-144.2294043 71.92641602 -143.5694043 70.27641602 -142.8894043 68.57641602 C-142.2294043 68.57641602 -141.5694043 68.57641602 -140.8894043 68.57641602 C-140.6419043 67.79266602 -140.3944043 67.00891602 -140.1394043 66.20141602 C-138.68015926 63.13700145 -137.83925473 62.95915841 -134.8894043 61.57641602 C-134.60323242 60.98602539 -134.31706055 60.39563477 -134.0222168 59.78735352 C-130.44011445 52.7960779 -122.15840174 46.25185536 -115.8894043 41.57641602 C-115.2294043 41.57641602 -114.5694043 41.57641602 -113.8894043 41.57641602 C-113.8894043 40.91641602 -113.8894043 40.25641602 -113.8894043 39.57641602 C-112.2394043 38.91641602 -110.5894043 38.25641602 -108.8894043 37.57641602 C-108.8894043 36.91641602 -108.8894043 36.25641602 -108.8894043 35.57641602 C-104.50478891 32.57641602 -104.50478891 32.57641602 -101.8894043 32.57641602 C-101.8894043 31.91641602 -101.8894043 31.25641602 -101.8894043 30.57641602 C-100.8994043 30.57641602 -99.9094043 30.57641602 -98.8894043 30.57641602 C-98.8894043 29.91641602 -98.8894043 29.25641602 -98.8894043 28.57641602 C-67.83672386 10.63486732 -36.09392111 -0.20386214 0 0 Z " fill="#FE8126" transform="translate(252.889404296875,-0.576416015625)"/>
<path d="M0 0 C3.40960645 0.01386118 6.81645308 -0.02035598 10.22583008 -0.05834961 C37.49466567 -0.15411946 64.31451151 6.46599933 88.29907227 19.58666992 C90.03492315 20.53507147 91.78733074 21.45297795 93.5402832 22.36938477 C136.97434041 45.89198618 168.33998247 86.62786626 182.64599609 133.54248047 C185.63653881 143.77496578 187.70111453 154.01582573 189.1105957 164.57641602 C189.24208008 165.52000977 189.37356445 166.46360352 189.5090332 167.43579102 C196.78396239 230.74733688 165.36131665 295.05055688 133.76293945 347.80541992 C132.26578536 350.3161615 130.79265109 352.83882078 129.3293457 355.36938477 C116.23766086 377.84234016 101.42106932 399.55916867 86.1105957 420.57641602 C85.57063965 421.31923828 85.03068359 422.06206055 84.47436523 422.82739258 C76.18716188 434.20509535 67.72575657 445.44524925 59.1105957 456.57641602 C58.64588867 457.17760254 58.18118164 457.77878906 57.70239258 458.39819336 C46.27650167 473.14910073 34.3436075 487.48964289 22.1105957 501.57641602 C21.31266602 502.49938477 20.51473633 503.42235352 19.69262695 504.37329102 C18.98493164 505.18282227 18.27723633 505.99235352 17.5480957 506.82641602 C16.94868164 507.51219727 16.34926758 508.19797852 15.73168945 508.90454102 C11.99967152 512.75346554 8.58340479 513.10496624 3.4855957 513.20141602 C-1.89809326 513.22847577 -5.6041115 512.93167033 -9.8269043 509.26391602 C-11.23353311 507.74847252 -12.58719472 506.18247449 -13.8894043 504.57641602 C-14.58807617 503.7552832 -15.28674805 502.93415039 -16.0065918 502.08813477 C-17.50918862 500.28341438 -18.98873715 498.45932241 -20.44799805 496.61938477 C-23.14198808 493.26159559 -25.94255401 490.01393397 -28.7644043 486.76391602 C-33.72085755 481.02441062 -38.44889698 475.13857692 -43.1003418 469.15063477 C-45.52532889 466.03020894 -47.99240893 462.94570554 -50.47119141 459.86791992 C-59.53923888 448.60638335 -68.07875124 436.99504213 -76.5144043 425.25610352 C-78.66304682 422.26845552 -80.82830754 419.29456787 -83.0144043 416.33422852 C-135.68947249 344.75334096 -195.09419544 250.34486601 -181.8659668 157.58422852 C-178.27368716 134.47612744 -170.60539043 113.32945575 -159.1862793 92.91625977 C-158.02849092 90.82735844 -156.93943615 88.72105655 -155.8894043 86.57641602 C-155.2294043 86.57641602 -154.5694043 86.57641602 -153.8894043 86.57641602 C-153.8894043 85.58641602 -153.8894043 84.59641602 -153.8894043 83.57641602 C-153.2294043 83.57641602 -152.5694043 83.57641602 -151.8894043 83.57641602 C-151.8894043 82.58641602 -151.8894043 81.59641602 -151.8894043 80.57641602 C-151.2294043 80.57641602 -150.5694043 80.57641602 -149.8894043 80.57641602 C-149.8894043 79.58641602 -149.8894043 78.59641602 -149.8894043 77.57641602 C-149.2294043 77.57641602 -148.5694043 77.57641602 -147.8894043 77.57641602 C-147.3944043 75.59641602 -147.3944043 75.59641602 -146.8894043 73.57641602 C-146.2294043 73.57641602 -145.5694043 73.57641602 -144.8894043 73.57641602 C-144.2294043 71.92641602 -143.5694043 70.27641602 -142.8894043 68.57641602 C-142.2294043 68.57641602 -141.5694043 68.57641602 -140.8894043 68.57641602 C-140.6419043 67.79266602 -140.3944043 67.00891602 -140.1394043 66.20141602 C-138.68015926 63.13700145 -137.83925473 62.95915841 -134.8894043 61.57641602 C-134.60323242 60.98602539 -134.31706055 60.39563477 -134.0222168 59.78735352 C-130.44011445 52.7960779 -122.15840174 46.25185536 -115.8894043 41.57641602 C-115.2294043 41.57641602 -114.5694043 41.57641602 -113.8894043 41.57641602 C-113.8894043 40.91641602 -113.8894043 40.25641602 -113.8894043 39.57641602 C-112.2394043 38.91641602 -110.5894043 38.25641602 -108.8894043 37.57641602 C-108.8894043 36.91641602 -108.8894043 36.25641602 -108.8894043 35.57641602 C-104.50478891 32.57641602 -104.50478891 32.57641602 -101.8894043 32.57641602 C-101.8894043 31.91641602 -101.8894043 31.25641602 -101.8894043 30.57641602 C-100.8994043 30.57641602 -99.9094043 30.57641602 -98.8894043 30.57641602 C-98.8894043 29.91641602 -98.8894043 29.25641602 -98.8894043 28.57641602 C-67.83672386 10.63486732 -36.09392111 -0.20386214 0 0 Z M-102.8894043 77.57641602 C-103.80334961 78.4155957 -104.71729492 79.25477539 -105.65893555 80.11938477 C-125.92743373 99.28601896 -139.55472904 126.36322141 -144.8894043 153.57641602 C-145.1678418 154.75333008 -145.4462793 155.93024414 -145.7331543 157.14282227 C-153.70463884 192.81930121 -145.57655353 232.637573 -126.4753418 263.58032227 C-105.07592239 296.99264501 -72.29717495 323.14739741 -33.08081055 331.92016602 C-31.50106445 332.24500977 -31.50106445 332.24500977 -29.8894043 332.57641602 C-28.66092773 332.85485352 -27.43245117 333.13329102 -26.16674805 333.42016602 C10.83400202 341.15784818 51.28720834 333.2683673 83.06860352 312.91064453 C117.80396367 289.86728093 142.29849022 255.58484057 150.94970703 214.640625 C158.59901422 174.47043643 150.22820456 133.56211699 127.33422852 99.74682617 C122.20005385 92.47580227 116.28450541 85.96919401 110.1105957 79.57641602 C109.37196289 78.7862207 108.63333008 77.99602539 107.87231445 77.18188477 C81.68063188 49.84102416 43.34877081 34.9841 5.91796875 34.10351562 C-35.73979088 33.8117983 -72.95445609 48.70328043 -102.8894043 77.57641602 Z " fill="#FBFBFB" transform="translate(252.889404296875,-0.576416015625)"/>
<path d="M0 0 C12.48159926 9.01339978 22.20773256 31.50124404 25.125 46.28417969 C27.18615798 60.5405224 26.52633024 75.26329243 21.48828125 88.796875 C21.11445313 89.83585937 20.740625 90.87484375 20.35546875 91.9453125 C16.13204782 102.8255161 10.05298999 112.37249354 2.9921875 121.6171875 C2.43942139 122.35171143 2.43942139 122.35171143 1.87548828 123.10107422 C0.48828125 124.796875 0.48828125 124.796875 -1.54345703 126.84033203 C-8.34530772 134.12727125 -8.6540091 140.92455862 -8.51171875 150.421875 C-8.51982863 151.82164014 -8.53152235 153.22138931 -8.546875 154.62109375 C-8.57026718 158.01296042 -8.54584983 161.4050994 -8.51171875 164.796875 C-12.80171875 164.796875 -17.09171875 164.796875 -21.51171875 164.796875 C-21.60431941 144.29989635 -21.67569963 123.8029681 -21.71896744 103.30582237 C-21.73959154 93.78860732 -21.76770925 84.27152463 -21.81347656 74.75439453 C-21.85334896 66.45913308 -21.87915267 58.1639675 -21.88807273 49.86861289 C-21.8932868 45.47635825 -21.90553854 41.08437787 -21.93463898 36.69221115 C-21.9618145 32.55702179 -21.97015948 28.42221933 -21.96414948 24.28694916 C-21.96524876 22.77041902 -21.97319017 21.25387578 -21.98854065 19.73742294 C-22.0085034 17.66337392 -22.00363685 15.59077717 -21.99273682 13.51669312 C-21.99642399 12.35707754 -22.00011116 11.19746197 -22.00391006 10.00270653 C-21.39847049 6.0592455 -19.97068704 3.9036227 -17.51171875 0.796875 C-11.94045865 -3.21961484 -6.03926642 -2.89283679 0 0 Z " fill="#FEFEFE" transform="translate(298.51171875,103.203125)"/>
<path d="M0 0 C4.62 0 9.24 0 14 0 C14.0093457 1.98362549 14.01869141 3.96725098 14.02832031 6.01098633 C14.06382483 12.56104088 14.11760772 19.11074515 14.18390274 25.66055775 C14.22343155 29.63220193 14.25559315 33.60362262 14.27099609 37.57543945 C14.28612764 41.40770734 14.32050926 45.23936101 14.36830902 49.07135582 C14.3831593 50.53414258 14.39104311 51.99701702 14.39188385 53.45987892 C14.39424457 55.50753064 14.42124564 57.55347242 14.45410156 59.60083008 C14.46298401 60.76665115 14.47186646 61.93247223 14.48101807 63.13362122 C14.76640591 66.00713351 14.76640591 66.00713351 16.47161865 67.83744812 C19.91025437 69.57927162 19.91025437 69.57927162 28 70 C28 46.9 28 23.8 28 0 C32.62 0 37.24 0 42 0 C42 23.1 42 46.2 42 70 C47.94 69.01 47.94 69.01 54 68 C54.92144133 64.31423468 55.15336921 61.44120606 55.20532227 57.67089844 C55.2352401 55.74935944 55.2352401 55.74935944 55.26576233 53.78900146 C55.28274409 52.39579386 55.29962299 51.00258501 55.31640625 49.609375 C55.33698794 48.18019017 55.35798473 46.75101127 55.37937927 45.32183838 C55.43447449 41.5670655 55.48393888 37.81223882 55.53222656 34.05737305 C55.58253345 30.22309605 55.63817148 26.3888968 55.69335938 22.5546875 C55.80078739 15.03652245 55.90177328 7.51829193 56 0 C60.29 0 64.58 0 69 0 C69.09059639 8.72791675 69.16388542 17.45551799 69.20724869 26.18379974 C69.22806754 30.23729511 69.25627957 34.29045034 69.30175781 38.34375 C69.34542098 42.2600689 69.36917994 46.17606194 69.37950897 50.09260559 C69.38686386 51.58206812 69.40122599 53.0715141 69.42292023 54.56083679 C69.65497861 71.16152272 69.65497861 71.16152272 63.55230713 77.50476074 C56.23707509 83.96199973 52.73702086 83 42 83 C42 110.72 42 138.44 42 167 C37.38 167 32.76 167 28 167 C28 139.28 28 111.56 28 83 C23.71 83 19.42 83 15 83 C8.87972503 80.78990071 5.63990738 78.35280497 2 73 C0.21819745 68.59043365 -0.24493549 64.90790511 -0.22705078 60.16845703 C-0.22734283 59.51409164 -0.22763489 58.85972626 -0.22793579 58.18553162 C-0.22655288 56.04281924 -0.21104147 53.90046343 -0.1953125 51.7578125 C-0.19157866 50.2642333 -0.18873344 48.77065163 -0.18673706 47.27706909 C-0.17912978 43.36109562 -0.15950653 39.44527236 -0.1373291 35.52935791 C-0.11680783 31.52740511 -0.10772195 27.52542784 -0.09765625 23.5234375 C-0.07625763 15.68221532 -0.04109945 7.8411437 0 0 Z " fill="#FEFCFB" transform="translate(186,101)"/>
</svg>
