<?xml version="1.0" encoding="UTF-8"?>
<svg version="1.1" xmlns="http://www.w3.org/2000/svg" width="1024" height="721">
<path d="M0 0 C23.38729607 0 23.38729607 0 33.4375 1.625 C34.57582275 1.80321289 35.71414551 1.98142578 36.88696289 2.16503906 C83.81895873 9.93064683 125.23461394 35.2402361 159.84765625 67.03125 C161.84370099 68.85703321 163.87975666 70.61950065 165.9375 72.375 C170.31371013 76.17305229 174.33949416 80.30828129 178.38671875 84.44921875 C180.87620855 86.98116042 180.87620855 86.98116042 183.39453125 88.83203125 C186.30594501 91.25457194 188.59813984 93.92558553 191.0546875 96.796875 C194.51478202 100.71553627 198.27392297 104.33644104 202 108 C207.00903329 112.9249891 211.89033347 117.87105144 216.44335938 123.22460938 C218.05764676 125.06574768 219.75170314 126.78633558 221.5 128.5 C223.79326036 130.75797943 225.96428028 133.05996504 228.0625 135.5 C232.11368887 140.19755833 236.36332854 144.70270835 240.60375977 149.22851562 C244.25928559 153.1316038 247.89325012 157.05178267 251.5 161 C264.3891265 175.15868958 264.3891265 175.15868958 277.83984375 188.77734375 C279.68646029 190.67738862 281.40718287 192.61684353 283.1328125 194.625 C287.50982191 199.66273412 292.20975839 204.35603855 296.9375 209.0625 C297.79279297 209.92166016 298.64808594 210.78082031 299.52929688 211.66601562 C303.97480263 216.10473953 308.47450001 220.4071327 313.26196289 224.47631836 C315.09039865 226.07924961 316.79796019 227.76413304 318.5 229.5 C321.48872337 232.53594925 324.61706479 235.34508659 327.84375 238.125 C330.19962958 240.17359094 332.5050746 242.27203002 334.8125 244.375 C339.21568005 248.35206585 343.76311448 252.11536309 348.37109375 255.8515625 C355.82430218 261.94259465 355.82430218 261.94259465 359 265 C359 265.33 359 265.66 359 266 C240.53 266 122.06 266 0 266 C0 178.22 0 90.44 0 0 Z " fill="#0013DC" transform="translate(132,216)"/>
<path d="M0 0 C128.37 0 256.74 0 389 0 C389 43.89 389 87.78 389 133 C346.9903991 133 346.9903991 133 333.625 131.8125 C332.84079681 131.74720093 332.05659363 131.68190186 331.24862671 131.61462402 C244.81696907 124.41011306 161.05530345 101.23984652 0 0 Z " fill="#0013DC" transform="translate(499,455)"/>
<path d="M0 0 C11.88 0 23.76 0 36 0 C36.33 35.97 36.66 71.94 37 109 C39.64 106.36 42.28 103.72 45 101 C66.36033146 82.96855137 93.89362117 78.2946456 121 80 C142.08649868 82.45417708 160.12235126 92.14400723 175 107 C175.66902344 107.65742188 176.33804688 108.31484375 177.02734375 108.9921875 C191.31927601 124.09432 199.28046642 147.44636673 200 168 C200.03996094 169.12535156 200.07992187 170.25070312 200.12109375 171.41015625 C200.58326846 197.6997415 193.55516347 223.20484274 175.31860352 242.65136719 C156.53835375 262.07462432 132.25443008 270.68561839 105.5625 271.25 C81.03963546 270.73595722 58.32533661 264.90963161 40.48828125 247.41796875 C38.40409575 245.39267703 36.33669628 243.7088348 34 242 C33.91435791 242.65073486 33.82871582 243.30146973 33.74047852 243.97192383 C33.35085906 246.91919374 32.95673217 249.86584371 32.5625 252.8125 C32.42779297 253.83666016 32.29308594 254.86082031 32.15429688 255.91601562 C32.02216797 256.89892578 31.89003906 257.88183594 31.75390625 258.89453125 C31.63345947 259.80050049 31.5130127 260.70646973 31.38891602 261.63989258 C31 264 31 264 30 267 C20.1 267 10.2 267 0 267 C0 178.89 0 90.78 0 0 Z M48 134 C36.13353143 149.38076887 33.3858827 167.75378312 35.39453125 186.7265625 C37.74998903 201.16323921 44.248523 215.40324272 56.09375 224.33203125 C72.79937459 236.04506195 92.47952573 238.15544943 112.44091797 235.69970703 C126.84917322 233.09180286 140.11121446 226.0440102 149.03515625 214.328125 C159.68627231 198.31753016 162.57053346 179.48808126 159.34765625 160.609375 C156.20147076 145.42145317 148.82049001 133.08273898 136.18359375 123.96875 C109.45327561 107.16886962 69.56303603 110.23510466 48 134 Z " fill="#0013DC" transform="translate(692,132)"/>
<path d="M0 0 C0.67947693 0.00248749 1.35895386 0.00497498 2.059021 0.00753784 C29.85249905 0.16445031 58.60011687 6.85157215 79.1875 26.66015625 C79.991875 27.47806641 79.991875 27.47806641 80.8125 28.3125 C77.63239785 35.55606601 70.53606815 40.67061713 64.62890625 45.69921875 C62.98392079 47.16024885 61.53296032 48.68015415 60.0625 50.3125 C59.32 50.9725 58.5775 51.6325 57.8125 52.3125 C54.05518578 52.01608075 51.75647638 49.89984977 48.875 47.625 C30.20139412 33.76878713 5.98984593 30.6677414 -16.67578125 33.84375 C-26.79043183 35.74476707 -37.20822735 38.22817585 -44.1875 46.3125 C-47.02103868 51.24834158 -48.12503323 55.72039002 -47.1875 61.3125 C-45.31218729 66.34174773 -43.45286074 68.50077911 -38.75 71.0625 C-28.19065112 75.64086935 -16.99182263 76.85194391 -5.625 77.8125 C-4.2723419 77.93571185 -2.91980405 78.06025007 -1.56738281 78.18603516 C3.84248822 78.68811524 9.25378308 79.17383326 14.66552734 79.65527344 C63.59420176 84.08524134 63.59420176 84.08524134 78.9765625 100.92578125 C88.36641669 113.1325917 89.30772106 127.79929781 87.3828125 142.62109375 C84.34226657 156.75400167 76.47929331 168.47987133 64.515625 176.53125 C37.45354411 193.1099591 3.01734141 194.96696728 -27.40722656 187.73974609 C-47.59262207 182.58070977 -73.40179831 171.38684102 -85.1875 153.3125 C-84.74789966 150.03256725 -83.63941003 148.39521338 -81.30859375 146.10546875 C-80.72029785 145.52168457 -80.13200195 144.93790039 -79.52587891 144.33642578 C-78.89858887 143.73040527 -78.27129883 143.12438477 -77.625 142.5 C-76.67633057 141.56776611 -76.67633057 141.56776611 -75.70849609 140.61669922 C-71.3422611 136.35327805 -66.8941873 132.20063299 -62.1875 128.3125 C-59.17883649 129.64751303 -57.27090542 131.07519304 -55.0625 133.5 C-39.16660357 149.69708183 -15.08390495 158.1293576 7.25 158.5625 C20.3133183 158.31037323 35.92924208 156.90033445 45.8125 147.3125 C49.78296065 142.22216583 50.3962354 138.25076921 50.1328125 131.83203125 C49.57405946 127.43696161 47.81147412 125.34269206 44.8125 122.25 C30.37572069 112.9262467 10.86642954 113.34613028 -5.75805664 112.0586853 C-58.53721118 107.96278882 -58.53721118 107.96278882 -74.28515625 92.21484375 C-83.46370446 81.16550865 -85.34862135 68.28392201 -84.1875 54.3125 C-81.96828736 39.18576928 -74.46316828 27.1195208 -62.84375 17.33984375 C-44.52863203 3.81163161 -22.27186753 -0.0980592 0 0 Z " fill="#0013DC" transform="translate(521.1875,211.6875)"/>
<path d="M0 0 C12.21 0 24.42 0 37 0 C37 88.11 37 176.22 37 267 C24.79 267 12.58 267 0 267 C0 178.89 0 90.78 0 0 Z " fill="#0014DC" transform="translate(629,132)"/>
</svg>
